Coordinates
version=1
nRows=6
nColumns=107
inDegrees=yes

Units are S.I. units (second, meters, Newtons, ...)
If the header above contains a line with 'inDegrees', this indicates whether rotational values are in degrees (yes) or radians (no).

endheader
time	sternoclavicular_r2	sternoclavicular_r3	unrotscap_r3	unrotscap_r2	acromioclavicular_r2	acromioclavicular_r3	acromioclavicular_r1	unrothum_r1	unrothum_r3	unrothum_r2	elv_angle	shoulder_elv	shoulder1_r2	shoulder_rot	elbow_flexion	pro_sup	deviation	flexion	proximal_distal_r1	proximal_distal_r3	cmc_flexion	cmc_abduction	mp_flexion	ip_flexion	mcp2_flexion	mcp2_abduction	pm2_flexion	md2_flexion	mcp3_flexion	mcp3_abduction	pm3_flexion	md3_flexion	mcp4_flexion	mcp4_abduction	pm4_flexion	md4_flexion	mcp5_flexion	mcp5_abduction	pm5_flexion	md5_flexion	bicpt_tx	bicpt_ty	bicpt_tz	bicpt2_tx	bicpt2_ty	bicpt2_tz	ptpt_tx	ptpt_ty	ptpt_tz	FCUpt_tx	FCUpt_ty	FCUpt_tz	EDCpt_tx	EDCpt_ty	EDCpt_tz	APLpt_tx	APLpt_ty	APLpt_tz	FPLpt_tx	FPLpt_ty	FPLpt_tz	FPLpt2_tx	FPLpt2_ty	FPLpt2_tz	PEC1pt2_tx	PEC1pt2_ty	PEC1pt2_tz	PEC1pt3_tx	PEC1pt3_ty	PEC1pt3_tz	PEC2pt2_tx	PEC2pt2_ty	PEC2pt2_tz	PEC2pt3_tx	PEC2pt3_ty	PEC2pt3_tz	PEC3pt2_tx	PEC3pt2_ty	PEC3pt2_tz	PEC3pt3_tx	PEC3pt3_ty	PEC3pt3_tz	DELT2pt2a_tx	DELT2pt2a_ty	DELT2pt2a_tz	DELT2pt2_tx	DELT2pt2_ty	DELT2pt2_tz	LAT1pt2_tx	LAT1pt2_ty	LAT1pt2_tz	LAT1pt3_tx	LAT1pt3_ty	LAT1pt3_tz	LAT2pt2_tx	LAT2pt2_ty	LAT2pt2_tz	LAT2pt3_tx	LAT2pt3_ty	LAT2pt3_tz	LAT3pt2_tx	LAT3pt2_ty	LAT3pt2_tz	LAT3pt3_tx	LAT3pt3_ty	LAT3pt3_tz
      0.53333333	     -0.32153133	      0.13618549	     -0.13618549	      0.32153133	     -0.06510355	      0.52614402	      0.23649812	     -0.23649812	     -0.52614402	      0.06510355	     98.12844447	     76.12539988	     -1.71266445	    -21.72015123	     29.95966729	     24.30522021	      0.15394337	     -1.04759913	      0.18952614	     -0.52379957	      4.01085747	      3.92021553	    -41.26950208	    -62.16918272	     81.99977856	     13.09514442	     84.27309716	     77.59336456	     84.94367595	      6.12221999	     81.51445473	     34.87706356	     78.89651510	    -10.36016999	     82.58068310	     82.07488021	     85.47115994	    -13.85802990	     91.99902635	      5.61884056	      0.00089097	     -0.03103384	     -0.00485310	      0.01626332	     -0.01833869	     -0.00897279	      0.00575412	     -0.06606125	     -0.00200792	      0.00623812	     -0.18378658	     -0.00018225	     -0.00291662	      0.00077981	      0.00019234	      0.00015277	      0.00006111	      0.00030554	      0.00019554	      0.00058663	      0.00032998	      0.00004206	     -0.00009134	     -0.00010960	      0.00249522	      0.00875443	      0.00609004	     -0.00816234	      0.01970804	     -0.01869303	      0.00249522	      0.00875443	      0.00609004	      0.00054980	      0.01827011	     -0.00960027	      0.00394637	      0.00486823	      0.01596379	      0.00000000	      0.00775006	      0.00000000	     -0.00714734	     -0.03302999	     -0.00639012	      0.01474909	     -0.00048535	     -0.00391838	     -0.00088813	      0.01488676	     -0.00609004	      0.00245293	      0.02148430	     -0.01776261	     -0.00596316	      0.01289904	     -0.00545566	     -0.01243383	      0.02723600	     -0.03049248	     -0.02334514	      0.01442155	     -0.00731650	     -0.01547884	      0.03146519	     -0.03810502
      0.56666667	     -0.32160101	      0.13621501	     -0.13621501	      0.32160101	     -0.06511766	      0.52625804	      0.23654937	     -0.23654937	     -0.52625804	      0.06511766	     98.12261706	     76.14189705	     -1.71256274	    -21.72629540	     29.95930521	     24.30440083	      0.15395906	     -1.04761059	      0.18954272	     -0.52380530	      4.01088235	      3.92009809	    -41.26946024	    -62.16892181	     81.99929612	     13.09512435	     84.27307796	     77.59367888	     84.94378290	      6.12216275	     81.51465626	     34.87705729	     78.89617233	    -10.36010644	     82.58068719	     82.07504623	     85.47048571	    -13.85800714	     91.99892242	      5.61880210	      0.00089096	     -0.03103379	     -0.00485309	      0.01626329	     -0.01833859	     -0.00897285	      0.00575418	     -0.06606121	     -0.00200785	      0.00623804	     -0.18378659	     -0.00018224	     -0.00291652	      0.00077978	      0.00019234	      0.00015276	      0.00006110	      0.00030552	      0.00019553	      0.00058659	      0.00032996	      0.00004206	     -0.00009133	     -0.00010960	      0.00249576	      0.00875633	      0.00609136	     -0.00816411	      0.01971231	     -0.01869708	      0.00249576	      0.00875633	      0.00609136	      0.00054991	      0.01827407	     -0.00960235	      0.00394699	      0.00486928	      0.01596532	      0.00000000	      0.00775345	      0.00000000	     -0.00714888	     -0.03303715	     -0.00639292	      0.01475249	     -0.00048554	     -0.00392068	     -0.00088832	      0.01488998	     -0.00609136	      0.00245346	      0.02148895	     -0.01776646	     -0.00596445	      0.01290183	     -0.00545684	     -0.01243652	      0.02724190	     -0.03049909	     -0.02335020	      0.01442467	     -0.00731809	     -0.01548220	      0.03147201	     -0.03811328
      0.60000000	     -0.32144102	      0.13614725	     -0.13614725	      0.32144102	     -0.06508527	      0.52599625	      0.23643169	     -0.23643169	     -0.52599625	      0.06508527	     98.16878986	     76.10401971	     -1.71336861	    -21.89155920	     29.94223793	     24.44680855	      0.15517340	     -1.05256697	      0.19088349	     -0.52628349	      4.03369015	      4.02917653	    -41.27076654	    -61.21546548	     81.81489111	     13.09214745	     84.32861323	     78.17035931	     84.80560043	      6.10920758	     81.86940793	     34.55385941	     78.94869970	    -10.27378775	     82.05195833	     82.21495069	     85.17707303	    -13.84956348	     92.00865090	      5.60229987	      0.00089040	     -0.03103184	     -0.00485278	      0.01626875	     -0.01833396	     -0.00896084	      0.00574366	     -0.06606801	     -0.00201932	      0.00625168	     -0.18378428	     -0.00018496	     -0.00293361	      0.00078487	      0.00019255	      0.00014913	      0.00005965	      0.00029826	      0.00019088	      0.00057265	      0.00032212	      0.00004205	     -0.00009182	     -0.00011018	      0.00249452	      0.00875197	      0.00608833	     -0.00816005	      0.01970250	     -0.01868778	      0.00249452	      0.00875197	      0.00608833	      0.00054964	      0.01826498	     -0.00959757	      0.00394556	      0.00486686	      0.01596181	      0.00000000	      0.00774568	      0.00000000	     -0.00714533	     -0.03302072	     -0.00638648	      0.01484396	     -0.00049073	     -0.00398256	     -0.00088788	      0.01488258	     -0.00608833	      0.00245224	      0.02147826	     -0.01775762	     -0.00596149	      0.01289541	     -0.00545413	     -0.01243033	      0.02722835	     -0.03048391	     -0.02333859	      0.01441750	     -0.00731445	     -0.01547450	      0.03145635	     -0.03809432
      0.63333333	     -0.32151124	      0.13617699	     -0.13617699	      0.32151124	     -0.06509949	      0.52611114	      0.23648334	     -0.23648334	     -0.52611114	      0.06509949	     98.16543581	     76.12064308	     -1.71331007	    -21.89712382	     29.94403930	     24.44599277	      0.15519190	     -1.05258007	      0.19090390	     -0.52629004	      4.03373853	      4.02887693	    -41.27076791	    -61.21545135	     81.81446906	     13.09220634	     84.32846981	     78.17053153	     84.80573873	      6.10908538	     81.86944076	     34.55386541	     78.94794543	    -10.27373509	     82.05233736	     82.21513117	     85.17615916	    -13.84951619	     92.00839602	      5.60227266	      0.00089046	     -0.03103204	     -0.00485281	      0.01626861	     -0.01833445	     -0.00896084	      0.00574372	     -0.06606797	     -0.00201926	      0.00625161	     -0.18378428	     -0.00018491	     -0.00293351	      0.00078486	      0.00019252	      0.00014910	      0.00005964	      0.00029821	      0.00019085	      0.00057256	      0.00032206	      0.00004203	     -0.00009180	     -0.00011016	      0.00249507	      0.00875388	      0.00608966	     -0.00816183	      0.01970681	     -0.01869186	      0.00249507	      0.00875388	      0.00608966	      0.00054976	      0.01826897	     -0.00959967	      0.00394619	      0.00486792	      0.01596335	      0.00000000	      0.00774909	      0.00000000	     -0.00714689	     -0.03302793	     -0.00638931	      0.01484693	     -0.00049091	     -0.00398477	     -0.00088807	      0.01488583	     -0.00608966	      0.00245278	      0.02148296	     -0.01776150	     -0.00596279	      0.01289823	     -0.00545532	     -0.01243305	      0.02723430	     -0.03049057	     -0.02334368	      0.01442065	     -0.00731605	     -0.01547788	      0.03146323	     -0.03810264
      0.66666667	     -0.32198558	      0.13637789	     -0.13637789	      0.32198558	     -0.06519553	      0.52688734	      0.23683223	     -0.23683223	     -0.52688734	      0.06519553	     98.07589171	     76.23294808	     -1.71174723	    -21.32409312	     29.89147121	     23.95745041	      0.15839581	     -1.06122829	      0.19443006	     -0.53061415	      4.13302444	      4.05399267	    -41.21641812	    -60.96039215	     81.78065981	     13.08688952	     84.11060971	     79.56403825	     84.82049718	      6.20211680	     81.90464872	     34.73176898	     78.68004896	    -10.19144746	     82.43832648	     82.55470027	     85.05225115	    -13.83517021	     91.64919709	      5.62535253	      0.00088872	     -0.03102602	     -0.00485184	      0.01625011	     -0.01832016	     -0.00900221	      0.00577981	     -0.06604463	     -0.00197990	      0.00620480	     -0.18379226	     -0.00017565	     -0.00287489	      0.00076736	      0.00019186	      0.00014264	      0.00005706	      0.00028528	      0.00018258	      0.00054775	      0.00030811	      0.00004188	     -0.00009384	     -0.00011261	      0.00249875	      0.00876680	      0.00609864	     -0.00817387	      0.01973588	     -0.01871944	      0.00249875	      0.00876680	      0.00609864	      0.00055057	      0.01829592	     -0.00961383	      0.00395044	      0.00487510	      0.01597374	      0.00000000	      0.00777213	      0.00000000	     -0.00715743	     -0.03307666	     -0.00640844	      0.01452871	     -0.00047294	     -0.00377141	     -0.00088939	      0.01490779	     -0.00609864	      0.00245640	      0.02151465	     -0.01778770	     -0.00597159	      0.01291726	     -0.00546337	     -0.01245139	      0.02727448	     -0.03053556	     -0.02337812	      0.01444192	     -0.00732684	     -0.01550071	      0.03150965	     -0.03815886
      0.70000000	     -0.32205676	      0.13640804	     -0.13640804	      0.32205676	     -0.06520994	      0.52700382	      0.23688459	     -0.23688459	     -0.52700382	      0.06520994	     98.07475760	     76.24980031	     -1.71172743	    -21.32959650	     29.89271563	     23.95608885	      0.15841148	     -1.06123638	      0.19444690	     -0.53061819	      4.13297435	      4.05360838	    -41.21640413	    -60.96035258	     81.77984014	     13.08703789	     84.11048454	     79.56395758	     84.81965495	      6.20184084	     81.90460349	     34.73179138	     78.67965879	    -10.19137015	     82.43853932	     82.55475942	     85.05100870	    -13.83506702	     91.64913633	      5.62532008	      0.00088876	     -0.03102616	     -0.00485187	      0.01624999	     -0.01832050	     -0.00900229	      0.00577992	     -0.06604457	     -0.00197979	      0.00620468	     -0.18379227	     -0.00017560	     -0.00287472	      0.00076732	      0.00019184	      0.00014264	      0.00005705	      0.00028527	      0.00018257	      0.00054772	      0.00030809	      0.00004187	     -0.00009383	     -0.00011260	      0.00249930	      0.00876873	      0.00609999	     -0.00817568	      0.01974024	     -0.01872358	      0.00249930	      0.00876873	      0.00609999	      0.00055069	      0.01829997	     -0.00961596	      0.00395107	      0.00487618	      0.01597530	      0.00000000	      0.00777559	      0.00000000	     -0.00715902	     -0.03308397	     -0.00641131	      0.01453168	     -0.00047312	     -0.00377356	     -0.00088958	      0.01491108	     -0.00609999	      0.00245694	      0.02151941	     -0.01779164	     -0.00597291	      0.01292012	     -0.00546457	     -0.01245414	      0.02728051	     -0.03054231	     -0.02338329	      0.01444511	     -0.00732846	     -0.01550414	      0.03151661	     -0.03816729
